<svg xmlns="http://www.w3.org/2000/svg" xmlns:xlink="http://www.w3.org/1999/xlink" width="1920" zoomAndPan="magnify" viewBox="0 0 1440 809.999993" height="1080" preserveAspectRatio="xMidYMid meet" version="1.0"><rect x="-144" width="1728" fill="#ffffff" y="-80.999999" height="971.999992" fill-opacity="1"/><rect x="-144" width="1728" fill="#f9f9f8" y="-80.999999" height="971.999992" fill-opacity="1"/><path fill="#f68c20" d="M 931.796875 312.957031 C 931.6875 312.847656 931.554688 312.714844 931.433594 312.714844 C 931.066406 312.714844 930.8125 312.957031 930.8125 313.199219 L 930.8125 313.324219 C 931.175781 323.910156 931.796875 335.96875 930.691406 346.542969 C 929.835938 353.558594 917.035156 361.804688 913.101562 367.710938 C 906.082031 378.296875 903.621094 390.722656 898.824219 408.324219 C 898.578125 408.8125 898.335938 409.3125 897.835938 409.542969 L 861.035156 431.824219 C 860.292969 432.1875 860.183594 432.078125 860.792969 431.457031 C 867.433594 423.089844 874.328125 414.597656 881.464844 405.972656 C 888.480469 397.605469 892.304688 385.179688 897.582031 375.339844 C 903.488281 364.753906 913.332031 352.9375 919.980469 340.742188 C 920.226562 340.253906 920.347656 339.648438 920.226562 339.148438 C 917.765625 325.734375 918.507812 312.445312 922.199219 299.398438 C 922.308594 298.914062 922.308594 298.289062 922.199219 297.804688 C 918.019531 284.390625 911.855469 271.953125 903.730469 260.515625 C 903.730469 260.394531 903.609375 260.273438 903.609375 260.152344 C 903.609375 259.785156 903.867188 259.53125 904.230469 259.53125 C 904.355469 259.53125 904.476562 259.53125 904.597656 259.652344 C 910.871094 263.964844 915.425781 268.507812 918.507812 276.023438 C 923.671875 288.570312 928.472656 298.914062 936.71875 310.726562 C 942.25 318.609375 952.214844 338.292969 960.582031 341.851562 C 975.347656 348.125 997.503906 360.925781 1006.371094 375.449219 C 1015.726562 390.710938 1026.921875 406.71875 1031.855469 424.199219 L 1031.855469 424.308594 C 1031.855469 424.5625 1031.601562 424.792969 1031.367188 424.792969 C 1031.246094 424.792969 1030.992188 424.683594 1030.992188 424.550781 C 1021.890625 410.152344 1008.96875 399.945312 999.367188 385.789062 C 994.933594 379.261719 991.609375 374.21875 984.605469 369.660156 C 974.640625 363.144531 954.078125 352.195312 948.167969 340.863281 C 943.261719 331.144531 937.839844 321.910156 931.796875 312.921875 M 591.523438 741.121094 L 594.972656 741.375 C 595.824219 741.484375 596.078125 741.121094 595.957031 740.265625 C 593.621094 727.953125 588.941406 716.636719 581.804688 706.414062 C 581.683594 706.171875 581.546875 706.050781 581.316406 706.050781 C 580.949219 706.050781 580.574219 706.414062 580.574219 706.78125 L 580.574219 707.035156 C 584.519531 717.367188 587.347656 728.085938 589.199219 738.902344 C 589.320312 740.132812 590.304688 740.996094 591.523438 741.121094 Z M 712.507812 639.464844 C 710.171875 637.25 709.441406 637.492188 710.292969 640.453125 C 710.65625 641.304688 711.65625 642.914062 713.363281 644.996094 C 730.84375 666.898438 749.429688 687.449219 765.425781 710.714844 L 765.789062 710.714844 C 765.914062 710.59375 766.046875 710.59375 766.046875 710.59375 C 751.890625 684.136719 734.046875 660.382812 712.507812 639.464844 Z M 478.433594 658.785156 L 518.300781 635.152344 C 518.425781 635.03125 518.425781 634.898438 518.425781 634.898438 L 518.425781 634.65625 L 518.535156 634.898438 C 517.546875 633.179688 507.703125 636.992188 496.507812 643.523438 L 496.265625 643.644531 C 485.191406 650.039062 476.824219 656.691406 477.800781 658.40625 L 478.042969 658.652344 C 478.042969 658.773438 478.164062 658.773438 478.296875 658.773438 L 478.421875 658.773438 Z M 586.359375 629.367188 C 606.789062 640.320312 625.011719 651.027344 645.316406 664.695312 C 654.050781 670.589844 663.039062 676.632812 672.273438 682.539062 C 672.382812 682.648438 672.519531 682.648438 672.640625 682.648438 C 673.003906 682.648438 673.371094 682.40625 673.371094 682.039062 C 673.371094 681.917969 673.261719 681.785156 673.261719 681.664062 C 671.289062 678.347656 668.828125 675.253906 665.878906 672.183594 C 644.085938 650.027344 618.007812 635.507812 587.601562 628.625 C 586.980469 628.503906 586.613281 628.625 586.238281 629.003906 L 586.238281 629.113281 C 586.238281 629.234375 586.359375 629.367188 586.359375 629.367188 Z M 792.746094 639.832031 C 793.371094 639.34375 791.019531 634.898438 787.582031 629.734375 C 784.148438 624.566406 780.808594 620.742188 780.203125 621.121094 C 779.578125 621.488281 781.929688 626.03125 785.5 631.207031 C 788.933594 636.261719 792.140625 640.0625 792.761719 639.699219 L 792.761719 639.820312 Z M 849.609375 612.144531 C 849.488281 612.023438 849.246094 612.023438 849.125 612.023438 C 848.636719 612.023438 848.257812 612.386719 848.257812 612.753906 C 848.015625 613.859375 848.515625 614.726562 849.367188 615.226562 C 849.621094 615.347656 849.855469 615.46875 849.988281 615.46875 C 850.730469 615.46875 851.351562 614.847656 851.351562 614.117188 C 851.351562 613.75 851.097656 613.265625 850.863281 613.007812 L 849.636719 612.15625 Z M 855.761719 613.496094 C 857.980469 613.75 862.535156 613.859375 864.007812 612.386719 C 864.265625 612.386719 864.265625 612.144531 864.265625 612.023438 C 864.265625 611.765625 864.007812 611.65625 863.777344 611.65625 L 855.773438 613.007812 C 855.652344 613.007812 855.652344 613.128906 855.652344 613.265625 C 855.652344 613.335938 855.691406 613.417969 855.773438 613.507812 Z M 594.984375 609.316406 C 621.683594 622.851562 649.996094 634.058594 677.683594 645.863281 C 680.753906 647.089844 683.589844 648.941406 686.050781 651.160156 C 697.867188 662.109375 710.0625 675.765625 724.445312 682.796875 C 724.570312 682.796875 724.703125 682.917969 724.703125 682.917969 C 725.066406 682.917969 725.433594 682.550781 725.433594 682.175781 C 725.433594 682.0625 725.324219 681.929688 725.191406 681.808594 C 712.753906 666.3125 693.6875 643.167969 675.84375 634.679688 C 651.347656 623.105469 625.023438 613.507812 597.566406 608.707031 C 596.457031 608.464844 595.605469 608.464844 594.984375 608.585938 C 594.363281 608.84375 594.363281 609.085938 594.984375 609.328125 Z M 834.835938 606.113281 C 833.980469 605.871094 833.238281 605.992188 832.496094 606.371094 C 832.253906 606.371094 832.253906 606.480469 832.253906 606.734375 C 832.253906 606.992188 832.375 607.222656 832.617188 607.222656 L 840.253906 607.222656 C 840.621094 607.222656 840.742188 606.964844 840.742188 606.734375 C 840.742188 606.480469 840.621094 606.246094 840.363281 606.246094 C 839.011719 605.992188 837.539062 605.882812 836.066406 606.125 C 835.6875 606.246094 835.320312 606.246094 834.957031 606.125 L 834.835938 606.125 Z M 846.527344 604.640625 C 846.273438 604.761719 846.042969 605.125 846.042969 605.492188 C 846.042969 606.113281 846.527344 606.601562 847.148438 606.601562 C 847.394531 606.601562 847.515625 606.601562 847.636719 606.480469 L 853.53125 603.53125 C 854.398438 603.164062 854.398438 602.910156 853.421875 602.789062 C 850.839844 602.679688 848.625 603.289062 846.527344 604.640625 Z M 827.941406 603.042969 C 827.320312 603.664062 827.453125 604.273438 828.304688 604.882812 C 828.425781 605.003906 828.5625 605.003906 828.683594 605.003906 C 829.046875 605.003906 829.304688 604.761719 829.304688 604.382812 L 829.304688 603.398438 C 829.304688 603.03125 828.925781 602.667969 828.5625 602.667969 C 828.304688 602.667969 828.074219 602.777344 827.941406 603.03125 Z M 494.914062 605.625 L 503.902344 600.207031 C 504.390625 599.839844 505.011719 599.71875 505.632812 599.597656 C 506.742188 599.476562 507.851562 599.097656 508.960938 598.597656 C 510.066406 598.109375 510.066406 597.867188 508.835938 597.988281 C 503.050781 598.355469 498.25 600.679688 494.316406 604.871094 C 494.316406 604.992188 494.195312 604.992188 494.195312 605.25 C 494.195312 605.503906 494.4375 605.613281 494.683594 605.613281 L 494.925781 605.613281 Z M 857.96875 597.878906 C 854.152344 597.136719 850.828125 598 848.234375 600.582031 C 847.992188 600.691406 847.992188 600.949219 847.992188 601.203125 C 847.992188 601.570312 848.234375 601.933594 848.734375 601.933594 C 848.734375 601.933594 848.84375 601.933594 848.976562 601.8125 C 852.789062 600.828125 856.722656 600.339844 860.792969 600.59375 L 860.902344 600.59375 C 861.765625 600.59375 862.375 599.851562 862.375 599 C 862.375 598.621094 862.265625 598.257812 862.011719 597.890625 C 861.390625 597.269531 860.660156 597.148438 859.683594 597.636719 C 859.195312 597.890625 858.574219 598.011719 857.953125 597.890625 Z M 838.160156 593.933594 L 840.253906 592.214844 C 840.5 592.09375 840.621094 591.835938 840.621094 591.59375 C 840.621094 591.105469 840.253906 590.730469 839.769531 590.730469 C 839.769531 590.730469 839.644531 590.730469 839.511719 590.851562 C 836.675781 591.835938 834.214844 593.433594 831.996094 595.527344 C 831.753906 595.648438 831.753906 595.90625 831.753906 596.148438 C 831.753906 596.636719 832.117188 597.136719 832.605469 597.136719 L 837.539062 597.257812 C 838.757812 597.257812 839.011719 596.769531 838.390625 595.785156 L 838.027344 595.039062 C 837.660156 594.554688 837.769531 594.1875 838.148438 593.933594 Z M 866.09375 591.351562 C 866.214844 591.972656 866.714844 592.214844 867.320312 592.335938 L 867.445312 592.335938 C 867.808594 592.335938 868.175781 591.972656 868.175781 591.484375 C 868.175781 591.363281 868.175781 591.117188 868.066406 590.996094 L 867.445312 590.144531 C 867.320312 589.886719 866.957031 589.765625 866.699219 589.886719 C 865.714844 590.253906 865.484375 590.632812 865.847656 590.996094 C 865.96875 591.117188 866.09375 591.238281 866.09375 591.363281 Z M 932.066406 587.292969 C 932.429688 587.660156 933.050781 587.550781 933.539062 587.039062 C 934.027344 586.550781 934.160156 585.941406 933.90625 585.5625 C 933.539062 585.320312 932.917969 585.453125 932.429688 585.941406 C 931.945312 586.429688 931.808594 587.039062 932.066406 587.414062 Z M 967.015625 587.660156 C 968.742188 587.414062 969.972656 586.804688 970.828125 585.5625 C 970.949219 585.453125 970.949219 585.320312 970.949219 585.199219 C 970.949219 584.832031 970.691406 584.457031 970.207031 584.457031 L 970.085938 584.457031 L 964.554688 585.320312 C 963.8125 585.441406 963.324219 586.050781 963.324219 586.671875 C 963.324219 587.414062 963.945312 588.035156 964.6875 588.144531 C 965.539062 588.144531 966.285156 587.78125 967.015625 587.660156 Z M 919.019531 586.929688 C 917.789062 586.0625 917.167969 585.078125 917.167969 583.859375 C 917.167969 583.238281 916.925781 582.859375 916.316406 582.628906 L 904.5 578.816406 C 904.011719 578.695312 903.890625 578.816406 904.011719 579.300781 L 907.703125 588.65625 C 907.960938 589.144531 908.445312 589.523438 909.066406 589.523438 C 909.3125 589.523438 909.675781 589.402344 909.921875 589.265625 L 911.648438 587.792969 C 911.894531 587.671875 912.136719 587.550781 912.503906 587.550781 C 912.757812 587.550781 912.988281 587.550781 913.246094 587.792969 L 918.15625 590.632812 C 918.53125 590.875 919.140625 590.996094 919.640625 590.875 L 921.96875 590.023438 C 922.453125 589.765625 922.820312 589.898438 923.078125 590.507812 L 923.5625 591.863281 C 923.820312 592.484375 924.304688 592.847656 925.039062 592.847656 C 925.769531 592.847656 926.402344 592.238281 926.402344 591.375 L 926.402344 585.84375 C 926.402344 584.855469 925.660156 584.113281 924.671875 584.113281 C 924.304688 584.113281 923.929688 584.234375 923.683594 584.480469 L 920.726562 586.953125 C 920.117188 587.316406 919.628906 587.316406 919.007812 586.953125 Z M 941.042969 575.113281 C 940.789062 574.867188 939.679688 575.234375 938.460938 575.976562 C 937.097656 576.828125 936.367188 577.816406 936.488281 578.070312 C 936.742188 578.4375 937.972656 578.070312 939.191406 577.207031 C 940.421875 576.476562 941.289062 575.476562 941.152344 575.113281 Z M 929.09375 568.339844 L 927.132812 567.71875 C 926.402344 567.351562 926.023438 567.597656 926.023438 568.582031 C 926.144531 569.070312 926.511719 569.570312 927.386719 569.800781 C 928.375 570.179688 929.105469 570.179688 929.484375 569.691406 C 929.972656 569.070312 929.847656 568.582031 929.105469 568.328125 Z M 391.042969 559.347656 C 391.664062 558.984375 391.664062 558.617188 390.921875 558.363281 C 389.933594 557.996094 389.203125 558.363281 388.71875 559.472656 C 388.59375 559.472656 388.59375 559.59375 388.59375 559.59375 C 388.59375 560.082031 388.960938 560.445312 389.324219 560.445312 C 389.449219 560.445312 389.582031 560.324219 389.703125 560.324219 L 391.054688 559.335938 Z M 967.488281 566.867188 L 967.246094 567.488281 C 967.125 568.109375 966.757812 568.339844 966.136719 568.21875 L 963.921875 567.597656 C 962.933594 567.488281 962.445312 567.851562 962.191406 568.703125 L 961.945312 570.800781 C 961.945312 571.542969 962.191406 571.910156 962.933594 571.910156 C 967.867188 572.285156 971.179688 569.945312 973.03125 565.136719 L 973.03125 564.769531 C 973.03125 564.148438 972.652344 563.785156 972.046875 563.785156 L 969.574219 563.785156 C 968.964844 563.785156 968.71875 563.527344 968.464844 562.917969 C 967.734375 560.59375 967.855469 558.242188 968.839844 556.144531 C 969.207031 555.414062 968.964844 555.039062 968.21875 554.925781 L 965.152344 554.441406 C 964.664062 554.441406 964.285156 554.441406 963.921875 554.550781 C 962.8125 555.039062 962.324219 556.402344 962.8125 557.511719 C 962.933594 557.875 963.1875 558.132812 963.554688 558.363281 C 965.648438 559.957031 965.882812 561.808594 964.285156 563.785156 C 964.175781 564.027344 964.042969 564.148438 964.042969 564.40625 C 964.042969 564.769531 964.285156 565.136719 964.664062 565.257812 L 967.246094 566.367188 C 967.367188 566.367188 967.488281 566.488281 967.488281 566.730469 Z M 938.570312 555.792969 C 938.949219 555.792969 939.3125 555.671875 939.570312 555.425781 C 940.421875 554.0625 940.421875 552.84375 939.3125 551.980469 C 939.058594 551.859375 938.828125 551.734375 938.460938 551.734375 C 937.972656 551.734375 937.472656 552.101562 937.230469 552.589844 C 936.742188 554.320312 937.109375 555.425781 938.582031 555.792969 Z M 406.429688 550.128906 L 407.535156 550.128906 C 408.023438 550.128906 408.390625 549.75 408.390625 549.261719 C 408.390625 548.898438 408.269531 548.652344 407.902344 548.410156 C 407.28125 548.167969 406.671875 548.167969 405.941406 548.410156 C 405.199219 548.777344 405.199219 549.261719 406.0625 550.007812 C 406.0625 550.007812 406.308594 550.128906 406.429688 550.128906 Z M 962.082031 547.789062 C 962.933594 548.53125 963.554688 548.167969 964.042969 547.058594 C 964.164062 546.679688 964.40625 546.4375 964.773438 546.4375 L 974.871094 546.070312 C 975.25 546.070312 975.492188 545.949219 975.359375 545.449219 C 975.25 543.964844 975.734375 542.746094 976.46875 541.503906 C 976.722656 541.261719 976.84375 540.882812 976.84375 540.515625 C 976.84375 539.664062 976.222656 539.042969 975.480469 538.921875 L 968.839844 537.8125 L 968.71875 537.8125 C 968.355469 537.8125 968.097656 538.070312 968.097656 538.300781 L 968.097656 538.421875 L 968.21875 539.652344 C 968.34375 540.382812 968.097656 540.871094 967.367188 541.125 C 967.113281 541.246094 966.878906 541.371094 966.503906 541.492188 C 966.015625 541.613281 965.515625 541.855469 965.152344 542.234375 C 962.191406 545.183594 959.363281 544.9375 956.78125 541.492188 C 956.660156 541.246094 956.292969 541.125 956.039062 541.125 C 955.417969 541.125 955.050781 541.613281 955.050781 542.113281 L 955.050781 542.367188 L 956.890625 548.03125 C 957.011719 548.519531 957.390625 548.886719 957.890625 548.886719 C 958 548.886719 958.253906 548.765625 958.378906 548.765625 L 960.839844 547.777344 C 961.324219 547.535156 961.691406 547.535156 962.070312 547.777344 Z M 384.890625 537.582031 C 384.769531 537.460938 384.527344 537.203125 384.527344 537.09375 L 383.164062 534.253906 C 383.039062 533.890625 382.675781 533.632812 382.308594 533.632812 C 381.945312 533.632812 381.445312 534 381.445312 534.5 C 381.445312 534.574219 381.484375 534.609375 381.566406 534.609375 L 381.933594 537.8125 C 382.011719 537.8125 382.054688 537.851562 382.054688 537.933594 C 382.054688 538.054688 381.933594 538.300781 381.808594 538.421875 L 379.957031 541.003906 C 379.835938 541.125 379.835938 541.371094 379.835938 541.492188 C 379.835938 541.980469 380.214844 542.355469 380.703125 542.355469 C 380.824219 542.355469 381.066406 542.234375 381.1875 542.234375 L 383.648438 540.273438 C 383.90625 540.019531 384.027344 540.019531 384.269531 540.019531 L 387.472656 540.273438 L 387.597656 540.273438 C 387.960938 540.273438 388.328125 539.894531 388.328125 539.410156 C 388.328125 539.164062 388.21875 538.789062 387.839844 538.675781 L 384.890625 537.570312 Z M 494.546875 531.417969 C 493.804688 531.90625 493.5625 532.28125 493.804688 532.902344 C 493.804688 533.011719 494.0625 533.269531 494.304688 533.390625 C 494.792969 533.757812 495.402344 533.757812 495.777344 533.390625 C 495.886719 533.269531 495.886719 533.011719 495.886719 532.769531 C 495.777344 532.515625 495.777344 532.402344 495.777344 532.148438 C 495.886719 532.027344 495.777344 532.027344 495.777344 531.894531 C 495.65625 531.40625 495.292969 531.160156 494.792969 531.285156 C 494.710938 531.285156 494.625 531.320312 494.535156 531.394531 Z M 608.503906 558.628906 L 638.042969 530.929688 L 638.042969 530.6875 C 636.9375 529.457031 629.296875 534.5 621.1875 542.125 L 620.820312 542.492188 C 612.695312 550.128906 607.03125 557.253906 608.140625 558.496094 L 608.140625 558.617188 L 608.503906 558.617188 Z M 508.460938 534.390625 L 507.460938 531.320312 C 507.21875 530.457031 506.363281 529.835938 505.5 529.835938 C 504.769531 529.835938 504.148438 530.210938 503.769531 530.832031 L 501.1875 535.132812 C 501.078125 535.132812 501.078125 535.253906 501.078125 535.253906 C 500.957031 535.875 501.1875 536.363281 501.6875 536.617188 L 501.941406 536.617188 C 504.039062 536.730469 504.890625 537.835938 504.648438 539.808594 C 504.648438 540.433594 504.890625 540.675781 505.378906 540.675781 C 510.066406 539.933594 514.003906 537.972656 517.558594 534.765625 C 517.816406 534.523438 517.816406 534.144531 517.816406 533.78125 C 517.816406 533.160156 517.328125 532.550781 516.585938 532.550781 L 516.21875 532.550781 L 509.691406 535.023438 C 509.070312 535.265625 508.703125 535.023438 508.472656 534.402344 Z M 393.625 543.125 L 390.679688 548.667969 C 390.421875 549.03125 390.554688 549.277344 390.921875 549.398438 C 394.367188 550.503906 397.695312 550.382812 401.019531 549.03125 C 401.386719 548.910156 401.507812 548.542969 401.507812 548.289062 C 401.507812 547.800781 401.140625 547.4375 400.777344 547.4375 C 396.34375 547.558594 394.503906 545.585938 394.992188 541.285156 L 394.992188 541.164062 C 395.234375 539.796875 396.464844 538.703125 397.9375 538.945312 L 398.058594 538.945312 L 403.359375 540.054688 C 403.46875 540.054688 403.601562 539.933594 403.601562 539.933594 C 403.980469 539.808594 404.089844 539.566406 403.980469 539.3125 C 403.980469 539.203125 403.859375 539.203125 403.859375 539.066406 L 395.855469 533.769531 C 395.488281 533.648438 395.367188 533.28125 395.367188 532.914062 C 395.367188 532.550781 395.488281 532.292969 395.734375 532.050781 L 400.898438 527.628906 C 401.519531 527.140625 401.386719 526.765625 400.53125 526.765625 L 392.652344 526.398438 L 392.53125 526.398438 C 392.042969 526.398438 391.542969 526.765625 391.542969 527.386719 L 391.054688 538.957031 C 391.054688 539.445312 391.3125 539.945312 391.675781 540.320312 L 393.40625 541.539062 C 393.894531 542.027344 394.027344 542.648438 393.648438 543.136719 Z M 965.648438 531.320312 L 966.015625 531.808594 C 966.378906 532.539062 966.878906 532.539062 967.488281 532.050781 C 969.828125 530.210938 972.421875 529.101562 975.492188 528.980469 C 975.75 528.980469 975.980469 528.738281 975.980469 528.492188 C 975.980469 528.25 975.859375 528.007812 975.613281 528.007812 C 974.628906 527.640625 973.761719 527.886719 973.03125 528.628906 C 972.65625 528.992188 972.167969 529.117188 971.667969 529.117188 C 968.097656 528.492188 959.984375 528.128906 957.402344 525.910156 C 956.78125 525.425781 956.40625 525.546875 956.171875 526.277344 L 955.429688 528.75 C 955.320312 529.480469 955.550781 529.847656 956.171875 529.847656 L 965.027344 530.953125 C 965.285156 530.953125 965.515625 531.078125 965.648438 531.332031 Z M 527.28125 529.101562 L 530.59375 523.195312 L 530.59375 522.953125 C 530.59375 522.574219 530.347656 522.332031 530.105469 522.332031 C 530.03125 522.332031 529.953125 522.371094 529.863281 522.453125 L 522.601562 525.765625 C 522.347656 525.886719 522.222656 525.886719 522.113281 525.886719 C 521.738281 525.886719 521.492188 525.765625 521.25 525.523438 C 520.140625 524.15625 518.667969 523.304688 517.070312 522.9375 C 516.449219 522.816406 515.964844 522.816406 515.476562 523.050781 C 512.039062 524.535156 510.175781 527.117188 510.066406 530.808594 C 510.066406 531.417969 510.3125 531.660156 510.921875 531.660156 L 520.882812 531.40625 C 521.617188 531.40625 521.992188 531.78125 521.871094 532.636719 L 521.503906 536.328125 L 521.503906 536.691406 C 521.503906 538.054688 522.613281 539.273438 524.089844 539.273438 C 524.574219 539.273438 525.074219 539.164062 525.5625 538.910156 C 527.523438 537.558594 529.253906 535.707031 530.496094 533.378906 C 530.738281 532.890625 530.605469 532.269531 530.117188 532.015625 L 527.535156 530.417969 C 527.046875 530.054688 526.914062 529.566406 527.292969 529.066406 Z M 462.046875 521.355469 L 461.925781 523.9375 L 461.925781 524.046875 C 461.925781 524.425781 462.183594 524.789062 462.667969 524.789062 L 462.914062 524.789062 C 464.886719 524.789062 466.484375 524.046875 466.484375 522.953125 L 466.484375 522.574219 C 466.605469 521.464844 465.007812 520.613281 463.046875 520.613281 L 462.804688 520.613281 C 462.304688 520.613281 462.0625 520.867188 462.0625 521.355469 Z M 490.480469 519.992188 C 490.480469 519.261719 489.492188 518.773438 488.519531 519.003906 C 487.652344 519.125 486.921875 519.859375 487.03125 520.480469 C 487.15625 521.222656 488.019531 521.710938 489.007812 521.585938 C 489.992188 521.34375 490.601562 520.734375 490.480469 519.992188 Z M 498.96875 513.960938 C 499.578125 513.960938 500.066406 513.339844 500.066406 512.597656 C 500.1875 511.746094 499.824219 511.125 499.214844 511 C 498.59375 511 498.105469 511.621094 497.984375 512.367188 C 497.984375 513.21875 498.359375 513.839844 498.984375 513.960938 Z M 599.273438 527.738281 L 619.578125 500.304688 L 619.578125 500.183594 C 619.578125 500.101562 619.539062 500.019531 619.457031 499.929688 C 618.46875 499.320312 613.046875 504.726562 607.394531 512.242188 L 607.152344 512.609375 C 601.476562 520.125 597.785156 526.886719 598.785156 527.628906 L 598.894531 527.738281 C 598.976562 527.820312 599.058594 527.859375 599.148438 527.859375 C 599.148438 527.859375 599.273438 527.859375 599.273438 527.738281 Z M 490.480469 496.847656 C 490.601562 496.601562 490.601562 496.359375 490.601562 496.117188 C 490.601562 495.496094 490.222656 494.886719 489.601562 494.628906 L 488.007812 493.898438 C 487.761719 493.777344 487.519531 493.777344 487.398438 493.777344 C 486.65625 493.777344 486.035156 494.140625 485.800781 494.628906 L 485.679688 495.007812 C 485.558594 495.25 485.558594 495.496094 485.558594 495.628906 C 485.558594 496.359375 485.925781 496.847656 486.546875 497.222656 L 488.140625 497.957031 C 488.398438 497.957031 488.628906 498.078125 488.882812 498.078125 C 489.503906 498.078125 490.101562 497.710938 490.359375 497.089844 L 490.480469 496.835938 Z M 488.75 486.515625 C 489.492188 487.003906 490.347656 487.261719 491.332031 487.136719 C 491.699219 487.015625 491.953125 486.761719 491.953125 486.394531 C 491.953125 486.152344 491.699219 485.90625 491.464844 485.773438 L 489.613281 485.042969 C 489.503906 484.921875 489.371094 484.921875 489.128906 484.921875 C 488.761719 484.921875 488.273438 485.285156 488.273438 485.773438 C 488.273438 486.152344 488.53125 486.394531 488.761719 486.515625 Z M 471.390625 463.992188 L 467.457031 463.128906 C 467.078125 463.128906 466.59375 463.128906 466.226562 463.382812 C 465.375 463.871094 464.996094 464.980469 465.484375 465.84375 C 465.738281 466.222656 466.105469 466.464844 466.46875 466.710938 C 468.320312 467.332031 470.160156 466.589844 471.648438 464.738281 C 472.011719 464.371094 471.890625 464.25 471.390625 464.007812 Z M 648.617188 367.261719 C 648.363281 375.886719 647.023438 386.957031 644.671875 400.492188 C 644.304688 403.195312 645.414062 407.386719 648.117188 413.171875 C 648.363281 413.902344 648.605469 413.78125 648.726562 413.171875 C 650.578125 405.046875 651.066406 397.289062 650.09375 389.90625 C 649.605469 386.214844 649.472656 382.769531 649.835938 379.578125 C 650.578125 374.398438 649.957031 370.585938 649.957031 365.664062 C 649.957031 365.421875 649.703125 365.179688 649.335938 365.179688 C 649.09375 365.179688 648.847656 365.300781 648.847656 365.542969 C 648.726562 366.03125 648.605469 366.53125 648.605469 367.273438 Z M 396.195312 394.707031 C 398.667969 398.519531 398.414062 398.761719 395.210938 395.4375 C 385.109375 384.863281 375.148438 374.15625 365.425781 363.328125 C 365.0625 362.828125 364.574219 362.585938 363.953125 362.585938 L 356.070312 361.730469 C 355.582031 361.609375 355.207031 361.976562 355.085938 362.460938 L 353.355469 389.054688 C 353.234375 390.40625 353.839844 391.636719 355.085938 392.246094 C 376.242188 405.171875 399.632812 419.457031 418.207031 435.574219 L 418.207031 435.941406 L 417.964844 435.941406 L 354.339844 401.125 C 354.21875 401.125 354.21875 401.003906 354.085938 401.003906 C 353.597656 400.882812 352.988281 401.246094 352.867188 401.734375 L 352.867188 401.992188 C 352.988281 425.988281 355.195312 449.996094 359.640625 473.738281 C 360.382812 477.1875 360.992188 479.902344 361.734375 481.742188 C 361.855469 482.109375 362.222656 482.363281 362.722656 482.363281 C 362.84375 482.363281 363.085938 482.242188 363.210938 482.242188 L 365.667969 480.511719 C 366.289062 480.144531 366.535156 480.269531 366.414062 480.890625 L 366.289062 483.105469 C 366.289062 483.105469 365.925781 483.59375 365.4375 484.09375 C 364.949219 484.703125 364.328125 484.824219 363.585938 484.457031 C 362.855469 484.203125 362.492188 484.335938 362.367188 485.078125 C 362.246094 485.566406 362.367188 486.066406 362.734375 486.433594 C 363.222656 487.175781 368.777344 488.890625 370.25 490 C 370.492188 490.121094 370.492188 490.378906 370.492188 490.621094 C 370.492188 490.878906 370.382812 491.109375 370.007812 491.242188 C 367.300781 491.730469 365.328125 493.339844 363.976562 495.675781 C 363.597656 496.410156 363.722656 496.773438 364.464844 497.03125 L 367.777344 497.773438 C 368.15625 497.882812 368.398438 498.136719 368.398438 498.625 C 368.398438 498.882812 368.289062 499.113281 368.03125 499.246094 L 365.9375 500.84375 C 365.195312 501.328125 365.195312 501.828125 365.683594 502.4375 L 377.375 515.972656 C 377.996094 516.59375 377.996094 517.566406 377.375 518.296875 C 375.902344 520.027344 374.171875 520.273438 372.078125 519.042969 C 372.078125 519.042969 371.957031 518.917969 371.832031 518.917969 C 371.457031 518.917969 371.210938 519.296875 371.210938 519.539062 L 371.210938 519.796875 C 372.199219 522.378906 373.429688 524.707031 374.78125 527.054688 C 376.511719 529.761719 379.824219 530.746094 382.785156 531.734375 C 383.273438 531.855469 383.515625 532.222656 383.769531 532.722656 C 385 535.425781 386.976562 536.777344 389.921875 536.777344 C 390.300781 536.777344 390.542969 536.410156 390.542969 536.046875 C 390.542969 535.679688 390.300781 535.425781 390.058594 535.304688 L 387.472656 534.816406 C 387.21875 534.695312 387.109375 534.574219 387.109375 534.328125 C 387.109375 534.207031 387.21875 534.074219 387.351562 533.964844 L 390.3125 532.367188 C 390.800781 532.113281 390.921875 531.746094 390.921875 531.257812 L 389.8125 524.242188 L 389.8125 523.878906 C 389.8125 522.402344 390.921875 521.171875 392.285156 521.039062 C 393.140625 521.039062 393.882812 520.671875 394.503906 520.1875 C 394.867188 519.699219 395.355469 519.441406 395.855469 519.441406 C 400.898438 519.199219 405.332031 517.347656 409.386719 514.277344 C 409.644531 514.15625 409.765625 513.792969 409.765625 513.546875 C 409.765625 513.292969 409.511719 512.925781 409.144531 512.804688 L 403.601562 510.964844 C 403.238281 510.84375 402.871094 510.34375 402.871094 509.964844 C 402.871094 509.480469 403.238281 509.113281 403.601562 508.980469 L 411.484375 506.152344 C 411.605469 506.03125 411.738281 506.03125 411.863281 505.898438 C 412.226562 505.652344 412.226562 505.042969 411.972656 504.667969 C 411.863281 504.558594 411.726562 504.558594 411.726562 504.421875 L 406.671875 501.097656 C 406.429688 500.988281 406.308594 500.855469 406.308594 500.609375 C 406.308594 500.246094 406.5625 499.878906 406.929688 499.878906 C 410.132812 499.503906 413.078125 498.285156 415.660156 496.433594 C 416.039062 496.1875 416.285156 495.578125 416.285156 495.214844 C 416.285156 494.351562 415.796875 493.726562 414.929688 493.617188 L 411.351562 493.132812 C 410.253906 493.007812 409.386719 492.023438 409.386719 490.792969 C 409.386719 489.804688 409.875 488.941406 410.753906 488.699219 L 417.648438 485.75 C 418.011719 485.628906 418.257812 485.128906 418.257812 484.75 C 418.257812 484.507812 418.148438 484.261719 418.011719 484.019531 L 412.46875 478.964844 C 411.738281 478.234375 411.984375 477.976562 412.847656 477.976562 L 418.511719 477.976562 C 419.242188 477.976562 419.5 477.613281 419.363281 476.871094 C 419.121094 476.261719 418.632812 475.882812 417.890625 475.882812 C 417.402344 475.882812 417.039062 475.515625 417.039062 475.03125 C 417.039062 474.773438 417.039062 474.664062 417.148438 474.542969 C 417.527344 473.800781 418.148438 473.3125 419 473.070312 C 419.488281 472.945312 419.988281 472.582031 420.109375 471.960938 L 421.949219 467.28125 L 421.949219 466.90625 C 421.582031 464.945312 421.839844 462.96875 422.691406 461.242188 C 422.933594 460.753906 423.3125 460.511719 423.921875 460.753906 C 425.882812 461.242188 426.867188 462.605469 426.746094 464.445312 C 426.746094 465.066406 427.003906 465.554688 427.367188 466.039062 L 428.964844 467.40625 C 429.328125 467.648438 429.207031 468.011719 428.84375 468.136719 L 427.488281 468.878906 C 427.003906 469.242188 427.003906 469.609375 427.367188 469.988281 L 429.328125 472.082031 C 429.453125 472.082031 429.585938 472.191406 429.707031 472.324219 C 430.316406 473.3125 430.074219 474.664062 429.085938 475.285156 C 428.964844 475.285156 428.828125 475.394531 428.707031 475.394531 L 426.382812 476.382812 C 426.125 476.503906 425.894531 476.871094 425.894531 477.246094 C 425.894531 477.734375 426.257812 478.101562 426.625 478.101562 L 433.777344 479.328125 C 434.507812 479.453125 434.992188 480.0625 434.992188 480.804688 C 434.992188 481.425781 434.628906 482.035156 434.007812 482.15625 L 429.207031 483.75 L 428.964844 483.75 C 428.707031 484.007812 428.707031 484.375 428.964844 484.617188 C 428.964844 484.617188 429.085938 484.617188 429.085938 484.726562 L 440.035156 488.417969 L 440.160156 488.417969 C 440.523438 488.671875 440.644531 489.160156 440.523438 489.527344 L 440.402344 489.527344 C 439.78125 490.632812 438.929688 490.757812 437.941406 490.269531 C 437.578125 490.011719 437.078125 489.902344 436.578125 490.011719 L 429.804688 492.484375 C 429.316406 492.59375 429.074219 492.972656 429.074219 493.472656 C 429.074219 493.839844 429.316406 494.203125 429.695312 494.460938 L 436.46875 498.027344 C 436.953125 498.394531 437.453125 498.515625 438.0625 498.515625 C 439.660156 498.515625 440.890625 499.136719 441.863281 500.367188 C 442.351562 500.855469 442.351562 501.355469 441.753906 501.71875 C 439.414062 503.9375 436.578125 505.042969 433.265625 505.289062 C 432.519531 505.289062 432.15625 505.664062 432.15625 506.398438 L 432.15625 509.464844 C 432.15625 510.085938 432.644531 510.574219 433.386719 510.574219 L 433.628906 510.574219 C 435.101562 510.332031 435.96875 510.832031 435.96875 512.425781 C 435.96875 513.535156 436.457031 513.777344 437.320312 513.15625 L 438.171875 512.425781 C 438.296875 512.304688 438.550781 512.304688 438.660156 512.304688 C 439.039062 512.304688 439.402344 512.546875 439.523438 512.925781 L 439.890625 514.277344 C 440.148438 514.765625 440.378906 515.144531 440.878906 515.265625 C 442.109375 515.753906 442.605469 516.628906 442.242188 517.96875 C 442.242188 518.089844 442.121094 518.226562 442.121094 518.335938 C 442.121094 518.710938 442.484375 519.199219 442.851562 519.332031 L 445.6875 520.0625 C 446.175781 520.1875 446.433594 520.550781 446.433594 521.171875 C 446.308594 522.539062 446.796875 523.632812 447.90625 524.5 L 447.90625 524.621094 C 448.394531 524.863281 449.015625 524.730469 449.378906 524.242188 L 449.5 524.242188 C 451.339844 520.929688 453.679688 520.550781 456.507812 523.132812 C 456.882812 523.390625 457.25 523.511719 457.503906 523.511719 C 457.871094 523.511719 458.113281 523.511719 458.359375 523.390625 C 459.953125 522.539062 460.816406 521.050781 460.816406 519.210938 C 460.941406 518.347656 460.574219 517.980469 459.601562 518.101562 L 457.871094 518.46875 C 457.382812 518.46875 457.019531 518.46875 456.761719 518.101562 L 454.058594 514.535156 C 453.9375 514.277344 453.9375 514.15625 453.8125 513.914062 C 453.691406 513.167969 454.179688 512.316406 454.921875 512.183594 C 455.167969 512.0625 455.410156 512.0625 455.53125 512.183594 C 457.382812 512.546875 458.855469 512.0625 460.097656 510.832031 L 460.210938 510.832031 C 460.832031 509.964844 460.832031 508.871094 460.097656 508.25 L 460.097656 508.125 C 458.503906 506.773438 456.652344 505.789062 454.679688 505.289062 C 454.3125 505.179688 453.824219 504.921875 453.570312 504.558594 C 452.460938 503.082031 452.21875 501.488281 452.949219 500.125 C 453.328125 499.394531 453.8125 499.015625 454.679688 499.136719 C 458.246094 499.757812 460.707031 498.515625 461.9375 495.703125 C 462.195312 495.214844 462.425781 495.214844 462.683594 495.578125 C 463.414062 496.933594 464.398438 497.054688 465.628906 496.3125 C 465.886719 496.199219 465.996094 496.199219 466.25 496.199219 C 466.507812 496.199219 466.871094 496.199219 466.996094 496.445312 C 469.089844 498.175781 470.5625 498.40625 471.539062 497.066406 C 471.902344 496.578125 472.023438 496.078125 472.023438 495.46875 C 472.023438 493.875 470.671875 492.632812 468.957031 492.765625 C 468.335938 492.765625 467.726562 492.886719 467.226562 493.253906 C 466.484375 493.875 465.628906 493.628906 464.765625 492.765625 C 464.644531 492.523438 464.386719 492.402344 464.023438 492.402344 C 463.898438 492.402344 463.65625 492.523438 463.402344 492.644531 L 461.441406 494.128906 C 460.953125 494.375 460.453125 494.496094 459.964844 494.375 L 451.109375 491.667969 C 450.488281 491.425781 450.121094 490.9375 450.121094 490.316406 C 450.121094 489.953125 450.121094 489.695312 450.367188 489.332031 L 454.3125 484.761719 C 454.558594 484.519531 454.558594 484.152344 454.558594 483.777344 L 453.824219 477.988281 C 453.703125 476.773438 453.9375 476.515625 454.933594 477.503906 C 456.410156 478.976562 458.371094 479.597656 460.597656 479.097656 C 460.964844 479.097656 461.328125 478.734375 461.328125 478.246094 C 461.328125 477.988281 461.21875 477.878906 461.085938 477.625 L 459.355469 475.894531 C 458.992188 475.53125 458.992188 475.285156 459.476562 475.164062 L 462.804688 473.800781 C 463.167969 473.691406 463.292969 473.433594 463.292969 473.070312 C 463.292969 472.703125 463.035156 472.324219 462.667969 472.324219 L 459.464844 471.960938 C 459.210938 471.960938 458.84375 471.703125 458.722656 471.339844 C 458.601562 470.71875 458.84375 470.109375 459.589844 469.742188 C 460.941406 469.121094 462.171875 468.511719 463.386719 468.011719 C 463.765625 467.769531 464.011719 467.40625 464.011719 466.90625 C 464.011719 466.296875 463.523438 465.808594 462.902344 465.808594 L 462.65625 465.808594 C 459.089844 466.417969 456.992188 464.945312 456.617188 461.242188 C 456.492188 460.621094 456.738281 460.132812 457.359375 459.765625 L 458.46875 459.28125 L 458.578125 459.28125 C 458.953125 459.023438 458.953125 458.535156 458.699219 458.292969 C 458.699219 458.171875 458.578125 458.171875 458.578125 458.171875 L 455.507812 455.332031 C 455.261719 455.222656 455.140625 454.96875 455.140625 454.722656 C 455.140625 454.238281 455.507812 453.859375 456.128906 453.859375 C 456.25 453.859375 456.382812 453.859375 456.492188 453.980469 C 457.980469 454.96875 459.332031 454.832031 460.441406 453.738281 C 460.5625 453.613281 460.804688 453.480469 461.0625 453.480469 C 461.425781 453.480469 461.683594 453.601562 461.792969 453.96875 L 462.414062 455.078125 C 462.667969 455.699219 463.15625 455.820312 463.523438 455.199219 L 465.253906 452.726562 C 465.738281 452.238281 465.738281 451.628906 465.253906 451.128906 L 458.601562 444.492188 C 458.359375 444.246094 458.113281 443.871094 458.113281 443.503906 C 457.871094 437.351562 466.371094 440.667969 470.296875 438.960938 C 470.296875 438.839844 470.417969 438.839844 470.550781 438.707031 C 471.171875 438.339844 471.28125 437.351562 470.792969 436.742188 C 470.792969 436.742188 470.683594 436.621094 470.683594 436.488281 L 464.644531 431.1875 C 464.386719 430.945312 464.277344 430.582031 464.277344 430.203125 C 464.277344 429.824219 464.386719 429.582031 464.644531 429.351562 C 466.371094 427.5 468.578125 426.28125 471.050781 425.660156 C 472.269531 425.402344 472.644531 424.671875 472.269531 423.441406 C 469.808594 417.289062 470.792969 411.636719 475.351562 406.582031 C 475.714844 406.21875 476.203125 405.960938 476.703125 406.21875 C 479.042969 406.960938 480.027344 408.679688 479.90625 411.261719 C 479.90625 411.746094 480.148438 412.125 480.527344 412.371094 C 481.878906 413.355469 482.125 414.585938 481.148438 416.183594 C 480.769531 416.804688 481.027344 417.414062 481.636719 417.777344 L 486.3125 420.359375 C 487.042969 420.726562 487.042969 421.101562 486.4375 421.46875 L 482 424.308594 C 481.636719 424.550781 481.378906 425.039062 481.378906 425.402344 C 481.378906 425.769531 481.503906 426.023438 481.746094 426.269531 C 483.476562 428.230469 485.8125 428.730469 488.53125 427.742188 C 489.382812 427.375 489.75 427.742188 489.261719 428.59375 L 486.933594 433.894531 C 486.679688 434.515625 486.8125 434.878906 487.421875 435.125 L 488.273438 435.609375 C 488.53125 435.734375 488.53125 435.867188 488.398438 436.097656 C 486.546875 438.316406 484.328125 439.910156 481.503906 440.777344 C 481.246094 440.898438 481.015625 441.140625 481.015625 441.519531 C 481.015625 441.898438 481.257812 442.140625 481.636719 442.25 C 484.707031 442.738281 487.53125 443.980469 490.003906 445.832031 C 490.734375 446.441406 491.222656 447.304688 491.222656 448.292969 C 491.222656 449.402344 490.492188 450.507812 489.503906 450.996094 L 485.4375 452.835938 C 484.949219 453.089844 484.707031 453.578125 484.707031 454.066406 C 484.707031 454.6875 485.070312 455.285156 485.691406 455.417969 L 492.101562 457.148438 C 492.832031 457.390625 493.207031 458 493.207031 458.621094 C 493.207031 459.109375 492.953125 459.609375 492.464844 459.851562 L 484.097656 464.164062 C 483.609375 464.40625 483.355469 464.773438 483.476562 465.261719 C 483.597656 467.367188 484.585938 469.074219 486.3125 470.195312 C 486.800781 470.449219 487.421875 470.558594 487.910156 470.449219 L 496.644531 468.964844 C 497.132812 468.855469 497.628906 468.597656 498.117188 468.476562 C 499.226562 467.867188 500.457031 467.867188 501.6875 468.476562 C 502.1875 468.730469 502.6875 468.730469 503.171875 468.367188 C 506.242188 466.394531 509.566406 467.988281 508.335938 471.800781 C 508.214844 472.289062 507.851562 472.546875 507.472656 472.65625 L 506.375 473.03125 C 505.878906 473.140625 505.511719 473.652344 505.511719 474.140625 C 505.511719 474.382812 505.632812 474.628906 505.765625 474.871094 L 507.605469 477.210938 C 508.226562 478.0625 507.972656 478.5625 506.984375 478.683594 L 506.5 478.804688 C 505.878906 478.804688 505.390625 478.683594 505.144531 478.0625 L 504.523438 476.832031 C 504.402344 476.46875 504.039062 476.222656 503.78125 476.222656 C 503.417969 476.222656 503.171875 476.46875 503.050781 476.710938 C 501.199219 479.78125 501.941406 482.242188 505.144531 484.214844 C 505.632812 484.46875 505.878906 484.957031 505.878906 485.445312 C 505.878906 486.1875 505.390625 486.796875 504.660156 486.917969 L 497.144531 488.285156 C 496.777344 488.285156 496.523438 488.648438 496.523438 489.015625 C 496.523438 489.378906 496.777344 489.757812 497.007812 489.757812 L 511.40625 493.449219 C 511.652344 493.449219 511.894531 493.691406 512.152344 493.8125 C 513.367188 494.558594 513.625 496.03125 512.882812 497.140625 C 512.757812 497.382812 512.636719 497.503906 512.394531 497.761719 C 509.445312 499.964844 506.242188 501.328125 502.796875 502.058594 C 502.1875 502.183594 501.6875 502.683594 501.6875 503.425781 C 501.6875 503.910156 501.941406 504.410156 502.429688 504.644531 L 508.214844 507.96875 C 508.472656 508.089844 508.582031 508.332031 508.582031 508.710938 C 508.582031 508.957031 508.472656 509.199219 508.214844 509.332031 L 506.863281 510.320312 C 506 510.808594 506 511.304688 506.972656 511.539062 C 511.285156 513.265625 514.734375 514.242188 517.070312 514.621094 C 520.398438 514.984375 521.503906 517.445312 520.519531 521.988281 C 520.03125 523.960938 520.519531 524.328125 521.992188 522.855469 C 523.832031 521.003906 525.195312 518.796875 526.050781 516.203125 C 526.171875 516.09375 526.304688 515.835938 526.535156 515.714844 L 532.445312 512.28125 L 532.566406 512.160156 C 533.054688 511.792969 533.054688 511.050781 532.675781 510.683594 C 532.675781 510.5625 532.566406 510.5625 532.566406 510.429688 L 529.484375 508.332031 C 529.121094 507.96875 528.875 507.480469 528.875 506.980469 C 528.875 506.480469 529.242188 505.996094 529.726562 505.75 L 536.367188 501.816406 C 536.746094 501.5625 536.988281 501.074219 536.988281 500.585938 C 536.988281 500.464844 536.988281 500.222656 536.867188 499.964844 L 535.769531 498.125 C 535.769531 498.003906 535.648438 497.761719 535.648438 497.636719 C 535.648438 497.273438 535.890625 496.894531 536.269531 496.773438 L 540.8125 494.191406 C 541.300781 493.949219 541.554688 493.460938 541.664062 493.09375 L 543.261719 485.824219 C 543.261719 485.714844 543.382812 485.578125 543.382812 485.578125 C 543.382812 485.09375 543.019531 484.59375 542.53125 484.46875 L 536.988281 482.617188 C 536.621094 482.507812 536.367188 482.132812 536.367188 481.765625 L 535.878906 478.929688 C 535.769531 478.195312 536.136719 477.832031 536.746094 477.832031 L 541.910156 478.074219 L 542.273438 478.074219 C 543.503906 477.832031 544.234375 476.722656 544.003906 475.613281 C 544.003906 475.359375 543.882812 475.25 543.882812 475.128906 L 542.042969 470.949219 L 542.042969 470.695312 C 542.042969 470.328125 542.289062 469.960938 542.652344 469.960938 L 542.773438 469.960938 C 545.734375 470.328125 547.085938 468.964844 546.722656 465.785156 C 546.722656 464.917969 547.453125 464.1875 548.316406 464.1875 C 549.046875 464.1875 549.667969 464.675781 549.789062 465.40625 L 552.496094 479.316406 C 552.605469 479.804688 552.859375 480.425781 553.347656 480.792969 L 553.96875 481.414062 C 554.089844 481.535156 554.210938 481.898438 554.210938 482.144531 C 554.210938 482.398438 554.101562 482.632812 553.96875 482.886719 L 551.753906 485.105469 C 551.753906 485.105469 551.628906 485.105469 551.628906 485.226562 C 551.519531 485.589844 551.628906 485.957031 552.007812 486.210938 L 552.117188 486.210938 L 552.980469 486.320312 C 553.226562 486.445312 553.46875 486.699219 553.46875 487.066406 L 553.46875 487.1875 C 552.105469 493.59375 559.878906 493.960938 560.851562 500.597656 C 560.960938 501.21875 560.597656 501.585938 560.109375 501.707031 L 554.445312 502.328125 C 553.589844 502.449219 553.457031 502.695312 553.957031 503.4375 L 561.703125 513.035156 C 562.070312 513.523438 562.449219 513.765625 562.933594 513.765625 C 566.734375 514.386719 573.519531 514.511719 572.15625 520.296875 C 572.035156 520.785156 571.789062 521.027344 571.425781 521.28125 L 563.042969 523.988281 C 562.558594 524.097656 562.3125 524.472656 562.433594 525.09375 L 565.261719 533.828125 C 565.515625 534.574219 565.261719 535.058594 564.53125 535.304688 C 552.472656 539.847656 540.777344 543.792969 529.339844 547.363281 C 517.898438 550.808594 518.875 566.574219 507.546875 569.386719 C 501.515625 570.75 479.003906 574.441406 487.605469 585.136719 C 488.835938 586.734375 488.46875 587.476562 486.496094 587.609375 C 475.800781 587.976562 463.851562 589.328125 456.347656 597.941406 C 456.09375 598.304688 455.96875 598.671875 456.09375 599.15625 L 456.957031 607.039062 C 457.066406 607.78125 456.835938 608.402344 456.214844 608.769531 C 447.480469 614.191406 436.273438 615.421875 426.429688 618.125 C 425.6875 618.246094 425.566406 618.613281 425.941406 619.355469 L 430.984375 625.992188 C 431.351562 626.371094 431.730469 626.480469 432.214844 626.480469 C 445.628906 624.761719 452.265625 623.410156 461.257812 614.800781 C 464.949219 611.230469 464.21875 601.996094 470.246094 601.007812 C 478.738281 599.535156 485.996094 598.0625 492.039062 596.464844 C 497.933594 594.980469 500.03125 589.570312 503.113281 583.664062 C 503.355469 583.175781 503.722656 582.675781 504.21875 582.433594 C 510.117188 579.484375 518.605469 579.605469 523.285156 576.28125 C 532.882812 569.507812 542.496094 562.492188 552.203125 555.488281 C 552.324219 555.367188 552.324219 555.230469 552.324219 555.230469 C 552.324219 555.109375 552.203125 554.988281 552.070312 554.988281 C 546.902344 556.339844 542.480469 558.789062 538.792969 562.371094 C 534.113281 566.914062 531.03125 568.15625 525.746094 563.964844 C 525.625 563.84375 525.488281 563.84375 525.488281 563.710938 C 524.636719 562.96875 524.746094 561.613281 525.609375 560.871094 L 525.734375 560.761719 C 536.195312 553.378906 548.851562 554.488281 559.207031 546 C 565.359375 540.832031 571.386719 535.414062 577.054688 529.625 C 577.539062 529.261719 577.675781 528.773438 577.785156 528.261719 C 578.039062 522.109375 579.015625 504.035156 583.324219 499.722656 C 590.953125 491.839844 599.078125 484.457031 607.8125 477.5625 C 615.449219 471.535156 629.46875 469.195312 638.945312 467.101562 C 644.609375 465.746094 647.058594 457.621094 644.109375 453.078125 C 643.867188 452.59375 643.746094 452.09375 643.625 451.484375 C 643.257812 445.210938 643.988281 439.167969 645.585938 433.261719 L 645.585938 433.015625 C 645.585938 432.53125 645.21875 432.273438 644.855469 432.273438 C 644.730469 432.394531 644.597656 432.394531 644.597656 432.394531 C 643.746094 432.882812 643.246094 433.625 643.003906 434.855469 C 642.015625 439.425781 640.675781 461.324219 629.710938 451.714844 C 626.144531 448.511719 627.617188 441.128906 629.347656 437.4375 C 629.46875 437.195312 629.46875 437.074219 629.46875 436.828125 C 629.46875 436.453125 629.347656 436.207031 629.105469 435.964844 C 627.996094 434.855469 627.738281 433.636719 628.617188 432.394531 C 628.859375 431.90625 628.980469 431.285156 628.859375 430.664062 C 627.507812 421.445312 626.023438 412.210938 624.546875 402.855469 C 623.925781 399.164062 624.804688 395.851562 626.886719 392.769531 C 627.253906 392.269531 627.253906 391.769531 627.007812 391.285156 L 624.792969 386.984375 C 624.667969 386.863281 624.667969 386.605469 624.667969 386.484375 C 625.035156 381.574219 626.519531 377.382812 626.398438 372.585938 C 625.777344 361.753906 625.65625 350.792969 625.914062 339.839844 C 625.914062 339.21875 625.65625 338.855469 625.167969 338.734375 C 616.921875 336.527344 612.746094 331.351562 612.257812 322.617188 C 611.390625 304.285156 616.570312 286.195312 623.328125 263.792969 C 624.925781 258.496094 627.875 255.425781 632.0625 254.4375 C 632.808594 254.316406 633.050781 253.816406 633.050781 253.207031 L 633.050781 249.152344 C 633.050781 248.53125 633.539062 248.042969 634.160156 247.921875 L 645.230469 246.324219 C 645.851562 246.214844 646.21875 245.839844 646.21875 245.339844 C 646.21875 245.230469 646.097656 245.09375 646.097656 245.09375 C 645.242188 240.660156 643.515625 236.605469 641.054688 232.914062 C 640.796875 232.546875 640.6875 232.0625 640.6875 231.5625 C 640.933594 226.140625 642.160156 220.855469 644.378906 215.8125 C 644.378906 215.6875 644.488281 215.433594 644.488281 215.191406 L 644.488281 213.214844 C 644.488281 212.363281 644.867188 212 645.71875 212 L 647.679688 212 C 648.300781 212 648.789062 211.875 649.277344 211.511719 L 655.425781 207.453125 C 655.925781 207.078125 656.535156 206.957031 657.023438 207.078125 C 668.839844 209.171875 675.367188 215.703125 676.71875 226.773438 C 677.464844 233.179688 671.179688 242.148438 667.988281 247.324219 L 667.988281 247.433594 C 667.5 248.175781 667.730469 249.164062 668.59375 249.652344 L 676.355469 253.464844 C 676.84375 253.707031 677.207031 254.316406 677.085938 254.9375 L 676.597656 257.398438 C 676.476562 258.140625 676.71875 258.507812 677.464844 258.386719 C 685.089844 258.386719 685.578125 263.074219 687.550781 269.957031 C 692.96875 288.179688 696.660156 305.769531 699.609375 324.480469 C 699.730469 325.089844 699.730469 325.589844 699.5 326.199219 C 698.390625 328.78125 698.269531 331.496094 699.121094 334.324219 C 699.242188 334.945312 699.121094 335.554688 698.636719 335.917969 C 696.90625 337.394531 696.417969 339.121094 696.796875 340.960938 C 698.390625 347.113281 697.039062 355.859375 689.035156 356.710938 C 688.183594 356.835938 687.941406 356.46875 688.050781 355.605469 C 689.035156 351.804688 688.792969 347.980469 687.5625 344.289062 C 687.316406 343.667969 687.316406 342.921875 687.683594 342.328125 C 689.414062 338.746094 688.671875 336.285156 685.355469 334.8125 C 684.859375 334.554688 684.492188 334.066406 684.359375 333.457031 L 681.898438 319.667969 C 681.898438 319.546875 681.777344 319.414062 681.652344 319.292969 C 681.277344 319.046875 680.789062 319.046875 680.546875 319.414062 C 680.421875 319.535156 680.421875 319.667969 680.421875 319.902344 L 680.546875 336.527344 C 680.546875 337.136719 680.167969 337.636719 679.558594 337.746094 L 677.964844 338.367188 C 677.34375 338.625 677.097656 339.109375 677.21875 339.730469 C 678.449219 344.277344 678.695312 348.210938 678.207031 351.792969 C 676.734375 362.742188 674.148438 376.519531 670.460938 392.890625 C 669.839844 395.363281 671.082031 398.3125 670.335938 401.261719 C 666.523438 415.902344 667.632812 431.285156 663.820312 446.550781 C 662.710938 451.226562 659.875 455.660156 657.65625 460.207031 C 657.292969 460.949219 657.535156 461.191406 658.277344 461.058594 C 665.539062 460.328125 677.597656 457.257812 683.273438 462.542969 C 689.304688 468.441406 694.226562 475.820312 698.027344 484.691406 C 699.023438 486.90625 700.242188 488.757812 701.972656 490.234375 C 711.328125 498.113281 723.753906 505.496094 731.257812 514.839844 C 739.746094 525.546875 748.738281 538.46875 749.589844 552.625 C 749.84375 557.558594 756.363281 562.957031 759.433594 566.414062 C 773.707031 582.300781 783.441406 601.242188 798.9375 616.625 C 803.871094 621.425781 809.644531 622.289062 816.050781 623.519531 C 823.933594 625.117188 825.773438 627.578125 830.207031 633.621094 C 836.84375 642.730469 844.105469 652.085938 848.417969 662.539062 C 851.621094 670.285156 853.945312 679.398438 861.21875 684.316406 C 866.128906 687.644531 871.304688 690.726562 876.714844 693.671875 L 876.96875 693.671875 C 877.214844 693.671875 877.457031 693.429688 877.457031 693.1875 L 877.457031 692.941406 C 867.980469 674.609375 856.164062 657.25 844.714844 640.136719 C 844.589844 640.027344 844.589844 639.890625 844.589844 639.769531 C 844.589844 639.40625 844.847656 639.148438 845.214844 639.148438 L 845.335938 639.148438 C 853.824219 640.746094 862.558594 642.21875 871.425781 643.328125 C 879.175781 644.3125 882.632812 649.113281 887.3125 654.535156 C 887.675781 654.898438 888.164062 655.277344 888.785156 655.386719 L 895.679688 657.605469 C 896.300781 657.859375 896.667969 658.089844 897.03125 658.46875 L 915.988281 680.25 C 916.851562 681.234375 917.839844 681.234375 918.824219 680.371094 L 926.449219 673.71875 C 926.707031 673.355469 926.828125 672.867188 926.570312 672.625 L 914.027344 658.710938 C 913.902344 658.46875 913.78125 658.226562 913.78125 658.089844 C 913.78125 657.605469 914.148438 657.105469 914.632812 657.105469 C 914.757812 657.105469 914.878906 657.105469 914.878906 657.226562 L 936.171875 663.257812 C 936.902344 663.378906 937.402344 663.378906 937.902344 662.890625 L 945.527344 655.875 C 945.648438 655.875 945.78125 655.765625 945.78125 655.765625 C 946.027344 655.386719 945.78125 654.777344 945.40625 654.65625 C 945.40625 654.535156 945.296875 654.535156 945.160156 654.535156 L 897.03125 646.289062 C 895.9375 646.03125 894.828125 645.421875 893.960938 644.558594 L 880.683594 630.648438 C 880.308594 630.28125 879.6875 630.160156 879.199219 630.160156 C 868.625 630.78125 857.917969 630.539062 847.332031 629.671875 C 838.109375 628.941406 833.675781 620.085938 825.675781 616.503906 C 820.375 614.300781 814.84375 612.324219 809.191406 610.839844 C 808.707031 610.71875 808.085938 610.476562 807.71875 609.988281 C 799.226562 600.996094 789.617188 593.492188 778.910156 587.21875 C 778.542969 586.976562 778.300781 586.597656 778.421875 586.113281 L 779.042969 583.785156 C 779.164062 583.296875 778.800781 582.796875 778.3125 582.675781 L 776.097656 582.054688 C 775.609375 581.8125 775.230469 581.566406 774.867188 581.203125 L 772.039062 577.132812 L 772.039062 576.890625 C 772.039062 576.769531 772.148438 576.632812 772.285156 576.632812 C 772.417969 576.632812 772.40625 576.632812 772.539062 576.757812 C 772.648438 576.878906 772.78125 577.121094 773.027344 577.378906 C 773.511719 577.742188 774.136719 577.742188 774.5 577.5 L 774.5 577.378906 C 776.828125 574.671875 780.285156 568.644531 783.722656 567.777344 C 784.464844 567.535156 784.585938 567.15625 784.097656 566.425781 L 782.613281 564.210938 C 782.246094 563.722656 781.882812 563.589844 781.394531 563.964844 L 776.59375 566.660156 C 776.472656 566.660156 776.230469 566.78125 776.109375 566.78125 C 775.488281 566.78125 774.878906 566.292969 774.878906 565.671875 C 774.878906 565.429688 775 565.304688 775.132812 565.183594 C 777.59375 560.386719 779.675781 556.9375 784.355469 553.488281 C 787.925781 550.90625 791.371094 547.824219 794.320312 544.390625 C 794.804688 543.902344 794.683594 543.527344 794.074219 543.28125 L 793.453125 543.160156 C 792.710938 542.917969 792.589844 542.539062 792.832031 541.929688 C 794.308594 538.128906 796.890625 535.535156 800.835938 534.304688 C 801.324219 534.183594 801.824219 533.683594 801.824219 533.195312 L 802.929688 524.207031 C 802.929688 523.71875 802.808594 523.476562 802.308594 523.21875 L 794.929688 519.785156 C 794.183594 519.40625 793.699219 518.675781 793.699219 517.8125 C 793.699219 516.59375 794.683594 515.605469 795.914062 515.605469 L 802.445312 515.605469 C 803.429688 515.605469 804.285156 514.742188 804.285156 513.753906 C 804.285156 513.511719 804.160156 513.132812 803.917969 512.902344 L 801.335938 508.589844 C 800.714844 507.601562 800.957031 506.992188 802.066406 506.75 L 804.039062 506.25 C 804.527344 506.140625 804.894531 505.761719 805.136719 505.15625 L 807.476562 499.113281 C 807.730469 498.371094 808.097656 498.261719 808.582031 498.867188 C 810.910156 501.816406 812.273438 505.019531 812.519531 508.589844 C 812.773438 513.390625 814.003906 515.363281 816.332031 519.054688 C 816.695312 519.539062 816.695312 520.285156 816.332031 520.648438 L 813.128906 524.597656 C 813.003906 524.839844 812.882812 525.082031 812.882812 525.328125 C 812.882812 526.070312 813.371094 526.558594 814.101562 526.558594 L 819.277344 526.558594 C 819.644531 526.558594 820.011719 526.800781 820.011719 527.289062 C 820.011719 527.542969 819.765625 527.773438 819.523438 527.910156 L 816.320312 529.382812 C 816.074219 529.503906 815.832031 529.871094 815.832031 530.125 C 815.832031 530.382812 815.953125 530.613281 816.085938 530.746094 L 824.699219 539.359375 C 824.957031 539.617188 825.078125 539.847656 825.078125 540.101562 C 825.078125 540.46875 824.957031 540.722656 824.699219 540.957031 C 823.226562 542.441406 821.386719 542.929688 819.167969 542.320312 L 818.914062 542.320312 C 818.546875 542.320312 818.0625 542.683594 818.0625 543.171875 C 818.0625 543.292969 818.183594 543.539062 818.304688 543.660156 L 824.957031 550.917969 C 825.320312 551.40625 825.808594 551.542969 826.308594 551.40625 C 830.484375 550.421875 839.476562 552.769531 836.40625 558.789062 C 835.917969 559.898438 834.933594 560.640625 833.824219 560.761719 L 822.386719 562.234375 C 821.898438 562.359375 821.765625 562.601562 821.898438 563.089844 L 826.320312 574.039062 C 826.574219 574.660156 826.941406 575.148438 827.550781 575.515625 C 828.660156 576.378906 828.769531 577.488281 827.914062 578.839844 C 827.550781 579.460938 827.792969 580.3125 828.28125 580.691406 C 829.765625 581.542969 830.863281 581.421875 831.726562 580.203125 C 832.460938 579.09375 832.835938 579.203125 832.957031 580.570312 C 833.066406 581.421875 833.566406 581.921875 834.542969 582.164062 C 835.042969 582.285156 835.164062 582.164062 834.917969 581.800781 C 833.933594 580.070312 835.285156 578.351562 838.976562 576.621094 C 839.71875 576.378906 839.71875 575.890625 839.230469 575.40625 L 837.636719 574.039062 C 837.515625 574.039062 837.515625 573.929688 837.515625 573.796875 C 837.148438 573.308594 837.257812 572.6875 837.757812 572.324219 C 837.757812 572.324219 837.878906 572.324219 838.015625 572.199219 L 841.082031 571.09375 C 841.703125 570.96875 842.070312 571.09375 842.4375 571.714844 C 843.179688 573.429688 844.410156 574.660156 846.125 575.515625 C 846.25 575.515625 846.382812 575.636719 846.503906 575.769531 C 847.125 576.257812 847.125 577.121094 846.613281 577.730469 C 846.503906 577.851562 846.371094 577.988281 846.25 577.988281 C 844.652344 578.972656 843.664062 580.449219 843.300781 582.300781 C 843.179688 582.90625 843.300781 583.285156 843.789062 583.515625 C 845.515625 584.261719 846.734375 585.492188 847.355469 587.085938 C 847.480469 587.207031 847.480469 587.34375 847.480469 587.464844 C 847.480469 587.949219 847.222656 588.195312 846.992188 588.449219 L 844.152344 589.925781 C 843.910156 590.179688 843.664062 590.410156 843.664062 590.777344 C 843.664062 591.03125 843.789062 591.398438 844.03125 591.519531 C 845.761719 592.871094 845.761719 593.371094 846.371094 595.832031 C 846.734375 597.050781 847.84375 597.5625 849.804688 597.050781 L 850.425781 597.050781 C 852.765625 597.914062 854.117188 597.304688 854.605469 595.578125 C 854.726562 595.089844 854.605469 594.589844 854.359375 594.222656 L 850.414062 590.046875 C 850.414062 589.925781 850.292969 589.789062 850.292969 589.679688 C 850.050781 589.058594 850.292969 588.449219 850.914062 588.316406 C 851.035156 588.195312 851.167969 588.195312 851.292969 588.195312 C 854.726562 588.449219 858.0625 589.058594 861.253906 590.046875 L 861.367188 590.046875 L 861.742188 589.679688 C 861.851562 589.558594 861.988281 589.425781 861.988281 589.304688 C 861.988281 589.058594 861.863281 588.816406 861.621094 588.683594 C 859.039062 587.328125 855.714844 586.097656 854.605469 583.152344 C 853.753906 580.570312 854.359375 578.71875 856.457031 577.621094 C 856.699219 577.5 856.945312 577.121094 856.945312 576.878906 C 856.945312 576.390625 856.578125 576.027344 856.078125 576.027344 L 850.292969 575.769531 C 848.941406 575.648438 847.964844 574.539062 847.964844 573.1875 C 847.964844 572.199219 848.453125 571.335938 849.316406 570.847656 L 867.164062 561.75 C 867.417969 561.492188 867.652344 561.261719 867.652344 560.882812 C 867.652344 560.398438 867.285156 560.03125 866.921875 559.898438 L 860.878906 558.300781 C 860.511719 558.191406 860.257812 557.816406 860.257812 557.316406 C 860.257812 556.949219 860.511719 556.695312 860.878906 556.585938 L 869.246094 552.894531 L 869.367188 552.894531 C 869.734375 552.515625 869.855469 552.027344 869.625 551.527344 C 869.625 551.527344 869.503906 551.527344 869.503906 551.40625 L 868.394531 550.3125 C 868.394531 550.3125 868.273438 550.1875 868.273438 550.054688 C 868.148438 549.691406 868.273438 549.203125 868.648438 549.066406 L 869.015625 549.066406 L 870.367188 549.191406 C 870.988281 549.191406 871.476562 548.703125 871.476562 548.082031 C 871.476562 547.59375 871.230469 547.214844 870.855469 547.09375 L 864.335938 544.390625 C 864.082031 544.269531 863.960938 544.136719 863.851562 543.902344 C 863.472656 543.417969 863.59375 542.792969 864.09375 542.539062 C 864.351562 542.429688 864.582031 542.296875 864.835938 542.429688 C 869.378906 542.917969 873.082031 541.429688 875.667969 537.738281 L 875.789062 537.738281 C 876.273438 537.007812 876.03125 536.023438 875.300781 535.414062 L 870.625 532.210938 C 870.367188 532.085938 870.246094 531.84375 870.246094 531.464844 C 870.246094 531.222656 870.367188 530.980469 870.625 530.855469 L 876.152344 527.773438 C 876.53125 527.664062 876.640625 527.289062 876.640625 527.042969 C 876.640625 526.679688 876.53125 526.421875 876.273438 526.300781 L 871.230469 522.125 C 871.152344 522.125 871.066406 522.082031 870.976562 522 C 870.609375 521.515625 870.609375 520.648438 871.230469 520.285156 L 871.34375 520.160156 C 873.558594 518.929688 875.910156 518.6875 878.359375 519.054688 C 878.359375 519.132812 878.398438 519.175781 878.480469 519.175781 C 878.84375 519.175781 879.101562 518.808594 879.101562 518.433594 C 879.101562 518.1875 878.980469 517.945312 878.722656 517.8125 L 874.789062 515.484375 C 874.667969 515.363281 874.421875 515.117188 874.421875 514.863281 C 874.421875 514.496094 874.667969 514.242188 874.910156 514.121094 L 877.238281 513.023438 C 877.492188 512.902344 877.601562 512.644531 877.726562 512.402344 L 878.210938 509.441406 C 878.332031 508.832031 878.699219 508.332031 879.320312 508.089844 L 881.28125 507.347656 C 881.539062 507.238281 881.660156 506.980469 881.660156 506.738281 C 881.660156 506.480469 881.660156 506.359375 881.539062 506.238281 L 880.429688 505.019531 C 879.6875 504.15625 879.808594 503.65625 880.792969 503.425781 L 881.902344 503.058594 C 882.28125 502.9375 882.390625 502.683594 882.390625 502.316406 L 882.390625 502.195312 L 881.539062 499.246094 C 881.28125 498.625 881.28125 498.136719 881.539062 497.515625 C 882.023438 496.285156 883.378906 495.554688 884.742188 496.042969 C 885.230469 496.285156 885.726562 496.664062 885.960938 497.152344 C 888.066406 500.355469 888.433594 503.558594 887.445312 506.871094 C 887.191406 507.738281 887.445312 508.101562 888.296875 508.101562 L 893.71875 508.101562 C 894.207031 508.101562 894.707031 508.46875 894.707031 508.957031 C 894.707031 509.441406 894.339844 509.699219 893.960938 509.820312 L 889.054688 511.171875 C 888.1875 511.429688 888.1875 511.660156 889.054688 512.023438 C 890.527344 512.769531 892.125 513.253906 893.839844 513.511719 L 893.960938 513.511719 C 894.085938 513.511719 894.21875 513.753906 894.085938 514 L 894.085938 514.109375 L 893.71875 514.605469 C 893.339844 515.09375 892.855469 515.09375 892.355469 514.71875 C 891.625 514.097656 890.757812 514.097656 890.027344 514.839844 C 889.40625 515.460938 889.539062 515.949219 890.273438 516.191406 L 897.167969 518.894531 C 897.421875 519.015625 897.421875 519.152344 897.289062 519.382812 C 896.667969 520.125 895.9375 520.367188 895.070312 520.246094 C 894.707031 520.125 894.21875 520.246094 893.839844 520.355469 L 889.785156 522.695312 C 889.417969 522.816406 889.164062 523.316406 889.164062 523.683594 C 889.164062 524.304688 889.539062 524.789062 890.160156 524.914062 L 898.53125 526.132812 C 898.894531 526.132812 899.140625 526.386719 899.382812 526.753906 L 901.84375 530.078125 C 901.964844 530.199219 901.964844 530.332031 901.964844 530.566406 C 901.964844 530.929688 901.710938 531.1875 901.34375 531.308594 C 899.613281 531.550781 898.140625 532.417969 897.167969 533.769531 C 896.679688 534.253906 896.179688 534.511719 895.4375 534.621094 L 890.160156 535 C 889.90625 535 889.539062 535.242188 889.539062 535.609375 C 889.539062 535.730469 889.539062 535.863281 889.652344 535.863281 C 890.515625 538.8125 892.488281 540.296875 895.691406 540.40625 C 896.433594 540.40625 896.921875 541.027344 896.921875 541.773438 C 896.921875 542.015625 896.800781 542.394531 896.546875 542.625 L 895.8125 543.367188 C 895.328125 543.976562 895.328125 544.355469 896.058594 544.839844 L 900.234375 547.058594 C 901.222656 547.546875 901.832031 548.652344 901.832031 549.75 C 901.832031 551.480469 900.480469 552.953125 898.761719 552.953125 L 898.640625 552.953125 L 892.367188 552.589844 L 892.257812 552.589844 C 891.878906 552.589844 891.515625 552.953125 891.515625 553.332031 C 891.515625 553.710938 891.636719 553.953125 892 554.0625 L 899.140625 557.632812 C 899.394531 557.753906 899.628906 558.007812 899.628906 558.253906 L 905.914062 572.53125 C 906.023438 572.894531 906.398438 573.152344 907.007812 573.152344 C 912.0625 572.53125 916.742188 570.8125 921.042969 567.851562 C 921.40625 567.730469 921.527344 567.363281 921.527344 567 C 921.527344 566.378906 921.042969 565.890625 920.421875 565.890625 L 920.296875 565.890625 C 919.566406 565.890625 918.945312 565.769531 918.460938 565.402344 C 917.972656 565.148438 917.972656 564.78125 918.460938 564.539062 L 924.355469 561.847656 C 925.339844 561.347656 925.339844 560.980469 924.246094 560.980469 C 921.042969 560.738281 917.972656 559.628906 915.011719 557.910156 C 911.078125 555.574219 911.320312 553.855469 915.875 552.980469 C 920.421875 551.992188 924.976562 550.519531 929.53125 548.679688 C 929.53125 548.679688 929.640625 548.679688 929.777344 548.558594 C 929.898438 548.300781 929.898438 547.8125 929.652344 547.691406 C 929.542969 547.582031 929.410156 547.582031 929.289062 547.582031 L 920.664062 546.109375 C 920.175781 546.109375 919.933594 545.730469 919.933594 545.367188 C 919.933594 545 920.054688 544.878906 920.296875 544.621094 C 922.515625 543.402344 924.246094 541.550781 925.597656 539.457031 C 926.21875 538.605469 925.964844 538.238281 924.976562 538.605469 C 922.515625 539.335938 920.175781 539.09375 917.972656 537.617188 C 917.851562 537.617188 917.714844 537.496094 917.714844 537.363281 C 917.460938 536.996094 917.59375 536.507812 918.082031 536.253906 C 918.203125 536.132812 918.335938 536.132812 918.460938 536.132812 L 920.917969 536.132812 C 921.542969 535.886719 921.773438 535.402344 921.542969 534.914062 C 921.542969 534.792969 921.542969 534.65625 921.417969 534.65625 L 918.835938 531.34375 C 918.714844 530.96875 918.582031 530.722656 918.714844 530.359375 C 919.578125 528.019531 921.054688 527.277344 923.394531 528.140625 C 928.558594 530.101562 933.234375 530.601562 937.546875 529.859375 C 938.167969 529.75 938.910156 529.75 939.519531 529.859375 L 943.210938 530.359375 C 943.578125 530.359375 943.820312 530.101562 943.820312 529.859375 C 943.820312 529.613281 943.710938 529.492188 943.578125 529.371094 L 940.25 526.910156 C 940.007812 526.789062 939.886719 526.546875 939.886719 526.289062 C 939.886719 525.925781 940.128906 525.558594 940.507812 525.4375 L 943.578125 524.816406 C 944.066406 524.695312 944.199219 524.449219 943.820312 524.074219 C 943.332031 523.21875 935.453125 524.449219 932.015625 519.652344 C 931.53125 518.90625 931.652344 518.421875 932.636719 518.421875 C 935.464844 518.296875 937.9375 517.3125 940.019531 515.472656 C 940.386719 515.214844 940.507812 514.851562 940.507812 514.484375 C 940.507812 514 940.25 513.5 939.886719 513.378906 L 935.828125 511.039062 C 935.085938 510.671875 935.085938 510.183594 935.574219 509.6875 C 937.535156 507.835938 939.886719 506.617188 942.589844 506.117188 C 942.835938 506.117188 943.078125 505.738281 943.078125 505.496094 C 943.078125 505.238281 942.957031 505.007812 942.699219 504.875 L 939.753906 503.144531 C 939.386719 503.035156 939.007812 502.65625 938.898438 502.15625 C 938.277344 500.429688 937.046875 499.210938 935.207031 498.46875 C 934.722656 498.222656 934.585938 497.847656 934.832031 497.359375 C 936.425781 494.289062 938.777344 492.816406 941.980469 492.816406 C 942.347656 492.816406 942.46875 492.691406 942.347656 492.449219 L 939.765625 482.59375 C 939.644531 482.109375 939.765625 481.742188 940.128906 481.375 C 943.710938 478.050781 944.199219 472.753906 947.769531 468.941406 C 948.011719 468.695312 948.390625 468.574219 948.753906 468.574219 C 949.375 468.574219 949.984375 468.941406 950.105469 469.683594 L 952.445312 482.484375 C 952.566406 482.851562 952.8125 483.105469 953.1875 483.105469 L 953.433594 483.105469 L 956.757812 481.742188 L 957 481.742188 C 957.378906 481.742188 957.621094 481.996094 957.621094 482.363281 C 957.621094 482.484375 957.5 482.730469 957.378906 482.851562 L 953.796875 485.433594 C 953.1875 486.054688 952.6875 486.785156 952.6875 487.773438 C 952.6875 488.757812 953.308594 489.734375 954.175781 490.234375 C 956.269531 491.21875 958.597656 491.707031 961.070312 491.707031 C 961.800781 491.707031 962.421875 492.195312 962.421875 493.070312 C 962.421875 493.558594 962.054688 493.921875 961.679688 494.167969 C 957.988281 496.019531 955.160156 498.734375 953.308594 502.292969 C 953.199219 502.535156 953.066406 502.65625 953.066406 502.914062 C 953.066406 503.644531 953.6875 504.265625 954.417969 504.265625 C 957.867188 504.386719 961.070312 503.644531 964.015625 502.171875 C 964.503906 501.925781 965.125 502.046875 965.371094 502.535156 L 967.585938 505.617188 C 967.707031 505.726562 967.707031 505.984375 967.707031 506.105469 C 967.707031 506.46875 967.585938 506.726562 967.34375 506.835938 L 962.542969 510.160156 C 962.054688 510.527344 961.921875 511.015625 961.921875 511.511719 C 962.410156 514.097656 961.558594 515.824219 959.21875 516.8125 C 958.972656 516.933594 958.730469 517.191406 958.730469 517.554688 C 958.730469 517.921875 958.988281 518.175781 959.351562 518.285156 L 978.183594 522.855469 C 978.804688 522.976562 979.414062 522.976562 980.023438 522.730469 C 981.386719 522.367188 982.242188 521.257812 981.875 520.394531 C 981.753906 519.90625 981.386719 519.539062 980.765625 519.40625 L 975.46875 517.566406 C 974.980469 517.445312 974.617188 517.082031 974.480469 516.582031 L 973.128906 511.648438 L 973.128906 511.402344 C 973.128906 510.78125 973.617188 510.40625 974.117188 510.40625 C 974.226562 510.40625 974.359375 510.40625 974.480469 510.527344 C 976.699219 511.511719 978.792969 511.636719 980.890625 510.648438 C 981.253906 510.394531 981.511719 510.027344 981.511719 509.539062 C 981.511719 509.175781 981.386719 508.808594 981.023438 508.6875 L 976.84375 506.347656 C 976.34375 506.105469 976.101562 505.496094 976.101562 504.875 C 976.101562 504.132812 976.589844 503.523438 977.332031 503.277344 L 979.535156 502.65625 C 980.28125 502.535156 980.644531 502.171875 980.902344 501.4375 L 982.628906 493.921875 C 982.742188 493.4375 982.742188 492.816406 982.375 492.328125 C 981.523438 490.476562 981.386719 488.515625 982.253906 486.542969 C 982.628906 485.433594 983.726562 484.8125 984.835938 484.8125 C 986.429688 484.8125 987.796875 486.042969 987.796875 487.648438 L 987.796875 487.773438 C 987.539062 492.316406 989.511719 495.03125 993.945312 496.140625 C 994.3125 496.140625 994.691406 496.628906 994.691406 496.992188 C 994.691406 497.359375 994.433594 497.613281 994.191406 497.847656 L 989.769531 500.320312 C 989.511719 500.429688 989.402344 500.683594 989.402344 500.941406 C 989.402344 501.304688 989.648438 501.671875 989.890625 501.671875 L 997.882812 504.253906 C 998.746094 504.507812 998.878906 504.996094 998.382812 505.617188 C 996.40625 508.6875 992.839844 507.824219 991.230469 509.550781 C 990.988281 509.808594 990.867188 510.039062 990.867188 510.296875 C 990.867188 510.660156 991.230469 511.027344 991.597656 511.28125 L 1000.707031 514.484375 C 1001.5625 514.730469 1001.816406 515.339844 1001.5625 516.082031 C 1000.464844 520.015625 997.871094 521.488281 993.933594 520.503906 L 993.8125 520.503906 C 993.449219 520.503906 993.191406 520.757812 993.191406 520.992188 C 993.191406 521.246094 993.3125 521.367188 993.449219 521.476562 C 996.882812 524.679688 1000.828125 526.65625 1005.386719 527.152344 C 1008.222656 527.519531 1010.804688 525.789062 1014.242188 526.667969 C 1015.972656 527.152344 1016.457031 528.140625 1015.714844 529.738281 C 1015.472656 530.359375 1015.105469 530.359375 1014.617188 529.847656 L 1013.621094 528.992188 C 1013.011719 528.25 1012.523438 528.371094 1012.144531 529.25 L 1011.039062 531.574219 C 1010.792969 532.320312 1010.308594 532.5625 1009.5625 532.5625 L 996.773438 531.710938 C 996.515625 531.710938 996.394531 531.832031 996.394531 532.074219 L 996.394531 532.332031 C 997.015625 532.816406 997.761719 533.183594 998.734375 533.441406 C 1001.195312 533.925781 1002.046875 535.277344 1001.316406 537.375 C 1001.0625 537.996094 1001.316406 538.359375 1001.804688 538.484375 L 1008.578125 540.941406 C 1009.199219 541.199219 1009.320312 541.429688 1009.0625 542.050781 C 1007.335938 545.253906 1004.753906 546.484375 1000.953125 545.621094 C 1000.828125 545.621094 1000.695312 545.621094 1000.695312 545.742188 C 1000.574219 545.863281 1000.574219 546.121094 1000.574219 546.230469 L 1000.574219 546.484375 C 1000.574219 546.730469 1000.695312 546.972656 1000.953125 547.105469 C 1002.914062 547.839844 1004.640625 548.945312 1005.859375 550.542969 C 1006.117188 550.796875 1006.347656 550.90625 1006.605469 550.90625 L 1016.203125 552.015625 C 1016.8125 552.136719 1017.1875 551.894531 1017.421875 551.285156 C 1038.59375 503.15625 1048.800781 452.703125 1048.191406 399.90625 C 1048.191406 397.570312 1047.570312 395.363281 1046.339844 393.269531 C 1040.554688 383.304688 1033.425781 373.570312 1028.492188 363.851562 C 1025.65625 358.429688 1021.234375 346.613281 1016.554688 343.046875 C 1008.429688 336.894531 999.441406 332.09375 991.074219 326.429688 C 990.828125 326.175781 990.339844 326.0625 989.964844 326.175781 L 980.863281 327.902344 C 979.757812 328.160156 979.632812 328.523438 980.488281 329.253906 C 989.964844 336.773438 998.710938 344.773438 1006.714844 353.265625 C 1006.957031 353.507812 1006.957031 353.753906 1006.714844 354.117188 C 1006.335938 354.484375 1005.96875 354.484375 1005.605469 354.117188 C 996.128906 346.734375 982.472656 337.867188 975.808594 327.902344 C 969.914062 318.914062 964.238281 309.8125 958.828125 300.460938 C 958.449219 299.972656 958.085938 299.605469 957.464844 299.351562 L 934.210938 290.871094 C 933.722656 290.75 933.46875 290.386719 933.34375 290.128906 C 928.4375 278.558594 926.207031 269.578125 913.902344 262.441406 C 908.375 259.238281 903.816406 255.058594 900.003906 250.003906 C 899.519531 249.394531 899.140625 249.394531 898.894531 250.003906 C 893.964844 259.859375 889.542969 269.824219 885.605469 280.03125 C 880.699219 292.578125 877.859375 306.734375 874.410156 320.398438 C 873.046875 326.078125 869.476562 330.984375 863.570312 335.164062 C 856.929688 339.964844 850.402344 366.175781 848.074219 374.546875 C 848.074219 374.667969 847.953125 374.800781 847.953125 374.800781 C 847.832031 374.800781 847.699219 374.679688 847.699219 374.546875 C 847.589844 364.703125 846.101562 350.546875 849.671875 341.691406 C 851.765625 336.394531 856.445312 332.703125 860.5 328.648438 C 860.867188 328.269531 861.121094 327.902344 861.242188 327.28125 C 862.960938 318.425781 867.03125 311.03125 868.125 301.6875 C 868.25 301.066406 868.125 300.945312 867.640625 301.433594 C 857.796875 311.652344 846.84375 320.507812 834.785156 328.027344 C 828.011719 332.335938 821.984375 339.597656 818.78125 345.128906 C 809.558594 361.621094 799.214844 377.128906 787.65625 391.890625 C 786.425781 393.488281 784.953125 394.851562 783.476562 395.839844 C 783.101562 396.082031 782.992188 395.949219 783.101562 395.71875 L 795.050781 365.324219 C 795.414062 364.460938 795.050781 363.960938 794.0625 363.960938 L 789.007812 363.960938 C 788.277344 363.960938 787.789062 364.214844 787.414062 364.703125 C 780.640625 371.71875 774.867188 378.492188 771.417969 387.96875 C 769.945312 391.90625 768.347656 395.851562 766.851562 399.773438 C 760.078125 416.886719 746.3125 426.609375 731.902344 437.195312 L 731.78125 437.195312 C 731.535156 437.195312 731.414062 437.074219 731.414062 436.9375 C 731.414062 436.828125 731.414062 436.695312 731.535156 436.695312 L 754.789062 401.734375 C 754.789062 401.625 754.914062 401.492188 754.914062 401.371094 C 754.914062 400.882812 754.546875 400.515625 754.058594 400.515625 L 753.9375 400.515625 C 748.03125 401.992188 734.496094 404.453125 731.660156 409.738281 C 725.507812 421.066406 722.558594 431.394531 710.742188 437.804688 C 704.835938 441.007812 698.683594 443.832031 692.167969 446.539062 C 692.042969 446.660156 691.910156 446.660156 691.910156 446.660156 C 691.667969 446.539062 691.546875 446.402344 691.667969 446.171875 L 691.667969 446.050781 C 698.0625 439.777344 704.578125 433.503906 711.230469 427.351562 C 717.757812 421.1875 721.085938 410.359375 728.453125 406.179688 C 737.324219 401.246094 745.570312 397.445312 754.425781 390.796875 C 760.46875 386.375 762.0625 377.882812 766.972656 372.464844 C 774.230469 364.460938 783.34375 359.417969 794.171875 357.199219 C 794.792969 357.089844 795.160156 356.710938 795.539062 356.214844 C 802.542969 344.898438 808.816406 336.894531 814.234375 332.214844 C 830.609375 318.0625 846.980469 303.785156 863.21875 289.265625 C 865.3125 287.414062 867.03125 285.195312 868.382812 282.492188 C 876.128906 266.972656 885.863281 252.695312 897.179688 239.527344 C 897.542969 239.164062 898.042969 239.164062 898.410156 239.527344 C 909.726562 250.734375 922.648438 259.101562 932.128906 272.636719 C 939.875 283.84375 956.734375 286.292969 964.359375 297.5 C 971.011719 306.855469 975.199219 312.761719 977.160156 315.222656 C 986.761719 327.539062 1009.285156 317.316406 1017.761719 329.988281 C 1025.886719 342.046875 1035.121094 353.253906 1045.339844 363.582031 L 1045.460938 363.582031 C 1045.585938 363.703125 1045.828125 363.582031 1045.828125 363.460938 L 1045.828125 363.351562 C 1028.726562 231.171875 941.347656 114.621094 814.953125 69.953125 C 702.59375 30.203125 576.445312 51.375 484.265625 128.042969 C 417.320312 183.664062 375.488281 254.679688 358.628906 340.816406 L 358.628906 341.316406 C 358.628906 342.167969 359.117188 343.03125 359.847656 343.519531 C 359.96875 343.519531 360.46875 343.519531 361.332031 343.277344 C 375.230469 339.097656 389.386719 334.785156 403.664062 330.472656 L 404.152344 330.472656 C 404.636719 330.472656 405.136719 330.730469 405.382812 331.09375 L 438.976562 376.128906 C 439.464844 376.617188 439.964844 376.75 440.574219 376.496094 L 466.664062 366.410156 C 467.285156 366.152344 467.773438 366.285156 468.261719 366.652344 L 519.703125 412.808594 C 520.070312 413.183594 520.554688 413.429688 521.054688 413.429688 C 535.953125 413.0625 550.230469 410.359375 564.019531 405.183594 C 564.628906 404.925781 565.128906 405.058594 565.613281 405.546875 L 603.023438 441.726562 C 603.144531 441.847656 603.28125 441.980469 603.28125 442.105469 C 603.28125 442.214844 603.15625 442.347656 603.15625 442.46875 C 602.914062 442.589844 602.792969 442.714844 602.535156 442.714844 C 602.414062 442.714844 602.171875 442.714844 601.914062 442.46875 C 589.125 432.625 576.320312 422.773438 563.53125 412.6875 C 563.152344 412.308594 562.53125 412.199219 561.9375 412.429688 C 559.097656 413.417969 556.636719 414.769531 554.421875 416.609375 C 554.054688 416.972656 553.675781 417.230469 553.191406 417.351562 L 533.75 424.976562 C 533.015625 425.234375 533.015625 425.464844 533.503906 425.964844 L 553.066406 441.09375 C 553.191406 441.09375 553.191406 441.214844 553.191406 441.347656 C 553.3125 441.59375 553.191406 441.835938 552.945312 441.96875 C 552.824219 441.96875 552.691406 441.96875 552.570312 441.847656 C 540.765625 436.425781 529.4375 431.261719 519.972656 422.164062 C 512.699219 415.269531 505.574219 408.738281 498.433594 402.210938 C 496.839844 400.734375 494.742188 399.75 492.390625 399.519531 L 453.632812 394.71875 L 453.507812 394.71875 C 453.144531 394.839844 452.886719 395.082031 453.023438 395.449219 L 453.144531 395.570312 C 458.308594 405.304688 463.242188 415.378906 467.664062 425.597656 C 468.152344 426.449219 468.03125 426.449219 467.300781 425.839844 C 458.550781 416 449.695312 406.777344 440.960938 397.910156 C 437.015625 393.964844 431.742188 392 427.050781 388.675781 C 414.75 380.0625 410.4375 355.082031 406.746094 341.046875 C 406.625 340.558594 406.257812 340.425781 405.894531 340.683594 L 376.476562 359.257812 C 375.988281 359.515625 375.988281 359.878906 376.109375 360.246094 C 382.140625 372.195312 388.777344 383.632812 396.160156 394.707031 Z M 689.597656 795.910156 L 693.773438 795.910156 C 481.625 792.195312 312.535156 614.117188 316.226562 398.25 C 320.027344 182.386719 495.15625 10.347656 707.332031 14.039062 C 919.628906 17.730469 1088.597656 195.808594 1084.90625 411.664062 C 1081.09375 627.527344 905.960938 799.699219 693.796875 795.886719 L 689.621094 795.886719 Z M 984.59375 437.65625 C 974.859375 429.035156 960.714844 417.59375 955.050781 406.023438 C 951.359375 398.761719 947.914062 391.257812 944.464844 383.753906 C 940.898438 375.996094 935.855469 370.464844 930.566406 364.058594 C 930.445312 363.9375 930.445312 363.8125 930.445312 363.691406 C 930.445312 363.4375 930.691406 363.328125 930.933594 363.328125 L 931.175781 363.328125 C 939.300781 369.964844 946.195312 375.875 951.859375 384.863281 C 963.066406 402.332031 974.140625 419.8125 985.089844 437.15625 L 985.089844 437.402344 C 985.089844 437.523438 984.96875 437.78125 984.835938 437.78125 C 984.726562 437.78125 984.59375 437.65625 984.59375 437.65625 Z M 984.59375 437.65625 " fill-opacity="1" fill-rule="evenodd"/></svg>